<svg version="1.1" id="Layer_1" xmlns="http://www.w3.org/2000/svg" xmlns:xlink="http://www.w3.org/1999/xlink" x="0px" y="0px"
	 width="100%" viewBox="0 0 497 482" enable-background="new 0 0 497 482" xml:space="preserve">
<path fill="#FDFEFE" opacity="1.000000" stroke="none" 
	d="
M135.000000,1.000000 
	C255.970596,1.000000 376.941193,1.000000 497.955902,1.000000 
	C497.955902,161.598221 497.955902,322.196472 497.955902,482.897339 
	C332.442078,482.897339 166.884048,482.897339 1.000000,482.897339 
	C1.000000,342.642761 1.000000,202.285263 1.392773,61.456791 
	C10.240116,58.938587 10.307345,58.867905 9.662380,52.875214 
	C11.281772,53.097355 13.124376,53.906818 14.545812,53.438354 
	C18.454611,52.150120 22.186804,50.326015 26.578825,48.463806 
	C27.801628,43.852161 27.802277,43.856506 33.699940,42.977703 
	C34.349781,42.880875 35.412781,42.883385 35.566238,42.528965 
	C37.942696,37.040573 43.512592,37.467396 47.903912,35.685417 
	C53.715515,33.327084 59.503399,30.898029 65.202850,28.284313 
	C66.604797,27.641392 68.358757,26.349426 68.687454,25.038942 
	C69.838516,20.449835 73.537437,21.309448 76.698883,20.230341 
	C82.816826,18.142084 91.141304,20.710552 94.541039,12.353571 
	C94.783722,11.757032 95.832878,11.179556 96.541679,11.134163 
	C99.947243,10.916073 103.382370,11.058884 106.770943,10.716573 
	C108.637848,10.527979 110.456810,9.698928 112.255966,9.044738 
	C114.900078,8.083323 117.433846,6.525552 120.148239,6.123141 
	C123.678741,5.599743 127.341568,6.013945 130.944885,5.923169 
	C134.111938,5.843383 135.363586,4.054422 135.000000,1.000000 
M140.277252,195.897659 
	C140.096069,196.211243 139.914886,196.524826 139.845245,196.843948 
	C139.845245,196.843948 139.786865,196.748749 139.193771,196.992584 
	C138.104477,198.314896 137.015198,199.637222 135.996185,200.989136 
	C135.996185,200.989136 135.956192,200.924225 135.432022,201.176819 
	C135.138229,201.665344 134.844437,202.153870 134.595978,202.652954 
	C134.595978,202.652954 134.532288,202.626785 133.987610,202.940842 
	C133.174042,204.164764 132.360458,205.388672 131.784790,207.011703 
	C131.784790,207.011703 131.518768,206.630615 131.011154,206.962189 
	C130.510315,207.829575 130.009491,208.696976 129.705261,209.791519 
	C129.705261,209.791519 129.464676,209.611633 128.952972,209.975006 
	C127.984116,211.661041 127.015251,213.347092 125.829269,215.191635 
	C125.829269,215.191635 125.864250,215.458176 125.347908,215.821945 
	C125.220184,216.213486 125.092453,216.605011 125.007248,216.994766 
	C125.007248,216.994766 124.982979,216.959793 124.499527,217.316193 
	C124.298882,217.868744 124.098244,218.421280 123.976181,218.973557 
	C123.976181,218.973557 123.936890,218.905502 123.377098,219.307419 
	C122.786041,220.799683 122.194984,222.291931 121.737251,223.878250 
	C121.737251,223.878250 121.669357,223.729874 121.132950,224.161255 
	C115.783051,235.863235 112.888779,248.152527 112.076118,261.906891 
	C112.033257,263.071198 111.953247,264.235504 111.952866,265.399811 
	C111.933563,324.834900 111.919518,384.269989 111.921471,443.705078 
	C111.921501,444.647644 112.126877,445.590210 112.256371,446.704407 
	C123.484535,446.704407 134.395355,446.704407 145.639038,446.704407 
	C145.132416,444.805786 144.730957,443.210754 144.281097,441.629517 
	C140.551468,428.520599 139.992004,415.235748 144.015549,402.238831 
	C146.993256,392.620209 151.341782,383.425964 155.002350,374.018280 
	C155.002350,374.018280 155.053268,374.081299 155.600418,373.711304 
	C156.444214,372.167725 157.288010,370.624176 158.031296,369.031647 
	C158.031296,369.031647 158.093826,369.124329 158.655746,368.763062 
	C160.109406,366.510162 161.563049,364.257294 162.996765,362.001801 
	C162.996765,362.001801 163.007294,362.020081 163.526749,361.680725 
	C164.045914,360.802124 164.565079,359.923523 165.007355,359.014160 
	C165.007355,359.014160 165.053116,359.083160 165.634537,358.752899 
	C167.498322,356.193085 169.362122,353.633270 171.644455,350.901520 
	C171.888321,350.691620 172.015656,350.425903 172.560104,349.849487 
	C172.857712,349.351349 173.155334,348.853180 173.247543,348.461243 
	C173.247543,348.461243 173.467087,348.387390 174.004745,348.093719 
	C174.717545,347.093506 175.430344,346.093292 176.058197,345.057770 
	C176.058197,345.057770 176.075943,345.148041 176.573303,344.944733 
	C176.729736,344.633545 176.886169,344.322357 176.996735,344.001007 
	C176.996735,344.001007 177.020569,344.041534 177.608841,343.720428 
	C180.773071,339.518951 183.937317,335.317505 187.692688,330.795013 
	C195.700974,324.011078 203.709259,317.227142 211.717560,310.443207 
	C211.460037,309.985352 211.202530,309.527527 210.945023,309.069672 
	C203.869858,309.069672 196.793533,308.989594 189.719833,309.091400 
	C182.113083,309.200836 174.508759,309.480957 166.234604,309.389374 
	C157.870758,303.683228 152.817459,295.345978 148.574432,286.005463 
	C149.326874,285.774200 150.079453,285.341125 150.831757,285.341583 
	C165.154907,285.350189 179.477997,285.436066 193.801178,285.449860 
	C203.460403,285.459167 213.121658,285.469635 222.776978,285.254272 
	C224.342285,285.219360 226.873917,284.368896 227.266174,283.283600 
	C229.308868,277.632080 230.803986,271.782684 232.756180,265.088287 
	C202.210678,265.088287 173.095245,265.088287 143.901230,264.157288 
	C143.978134,256.004639 144.035385,247.847748 149.888062,240.965530 
	C176.177704,240.965530 202.467346,240.965530 228.756973,240.965530 
	C229.136658,240.470566 229.516327,239.975601 229.896011,239.480637 
	C226.252258,233.861557 222.753708,228.138138 218.850098,222.705795 
	C218.004440,221.528961 215.705688,220.871964 214.072937,220.865936 
	C197.124359,220.803391 180.175095,220.923203 163.055771,220.204910 
	C164.208786,218.634689 165.248337,216.964050 166.534119,215.511337 
	C172.668213,208.580704 178.869186,201.709229 185.046371,194.816727 
	C186.222931,195.869476 186.240906,195.635620 186.142899,195.566742 
	C179.502914,190.899872 172.863342,186.232285 166.202332,181.595520 
	C159.680298,177.055542 159.670364,177.069824 153.455994,183.086761 
	C153.161423,183.239822 152.986557,183.480026 152.289032,184.027359 
	C150.075165,186.226746 147.861313,188.426147 145.618912,190.838486 
	C145.618912,190.838486 145.691254,190.636185 145.175781,190.809799 
	C144.997742,191.114563 144.819717,191.419312 144.769577,191.769333 
	C144.769577,191.769333 144.713882,191.645630 144.194000,191.815170 
	C144.010391,192.118240 143.826797,192.421310 143.768082,192.770721 
	C143.768082,192.770721 143.713364,192.649261 143.194992,192.833038 
	C143.021194,193.145584 142.847382,193.458115 142.806351,193.809753 
	C142.806351,193.809753 142.761261,193.678894 142.234940,193.850754 
	C142.049240,194.157730 141.863556,194.464722 141.807220,194.810791 
	C141.807220,194.810791 141.762543,194.683243 141.238831,194.867630 
	C141.062469,195.182892 140.886108,195.498138 140.840988,195.845673 
	C140.840988,195.845673 140.804581,195.715500 140.277252,195.897659 
M243.100586,46.837879 
	C242.974533,47.171482 242.848465,47.505089 242.827667,47.931705 
	C242.827667,47.931705 242.787628,47.797070 242.176941,48.183678 
	C241.886520,49.825371 241.596100,51.467064 241.093002,53.962711 
	C241.052032,56.319595 241.011063,58.676476 240.049835,61.193798 
	C237.386551,61.206909 234.723297,61.224819 232.059998,61.232380 
	C207.757965,61.301373 183.455933,61.368561 158.401962,61.158375 
	C157.374008,61.933769 155.632568,62.567608 155.445633,63.509865 
	C154.756607,66.982643 154.582306,70.557533 154.108398,74.807190 
	C154.114227,75.527214 154.120041,76.247246 153.897430,77.785194 
	C154.437439,79.479408 152.084335,82.540016 157.062180,82.695366 
	C184.334366,82.659973 211.606552,82.624580 239.382080,82.995659 
	C239.848419,83.685257 240.314774,84.374855 240.696091,85.771782 
	C240.526520,87.178955 240.356949,88.586136 239.925415,90.724663 
	C238.325043,95.048363 236.724670,99.372055 234.239822,103.299904 
	C209.895218,103.299904 185.550613,103.299904 161.059540,103.299904 
	C162.750778,109.898048 169.650955,120.071281 174.538757,123.049118 
	C175.841141,123.842583 177.643448,124.108757 179.218430,124.115669 
	C193.507812,124.178421 207.797668,124.129921 221.886108,124.752922 
	C215.556305,132.101883 209.226501,139.450836 202.599899,147.144394 
	C207.700378,150.325256 212.323624,153.208481 216.984970,156.009995 
	C216.984970,156.009995 216.910446,156.060730 217.230530,156.652420 
	C221.039886,159.241425 224.849243,161.830444 229.548798,165.024475 
	C237.532974,156.190674 245.290894,147.607208 252.996719,139.005142 
	C252.996719,139.005142 253.028244,139.050644 253.596893,138.746902 
	C254.404526,137.499985 255.212158,136.253052 255.996674,135.001633 
	C255.996674,135.001633 256.008972,135.022522 256.574677,134.662079 
	C263.644958,124.875305 269.154480,114.294640 272.123047,102.561150 
	C273.747131,96.141800 274.769165,89.570129 276.003052,83.001221 
	C276.003052,83.001221 276.059753,83.065926 276.860474,83.160416 
	C289.707611,83.386414 301.888855,86.569603 313.927246,91.290131 
	C313.927246,91.290131 313.658783,91.400131 313.953888,91.839684 
	C314.292511,91.918106 314.631165,91.996521 314.980621,92.001465 
	C314.980621,92.001465 314.925690,92.051498 315.329407,92.585022 
	C317.540070,93.747063 319.750702,94.909103 321.986664,95.999825 
	C321.986664,95.999825 321.927582,96.047142 322.284119,96.616829 
	C326.504883,99.793007 330.725647,102.969185 335.095398,106.576370 
	C335.272736,106.850449 335.523254,107.008400 336.029785,107.567947 
	C336.332520,107.756348 336.635254,107.944740 336.955627,108.043800 
	C336.955627,108.043800 336.874542,108.085220 337.111694,108.714622 
	C339.617645,111.586914 342.123566,114.459206 344.969971,117.101143 
	C344.969971,117.101143 344.611572,117.302368 344.785919,117.961143 
	C346.178711,119.993042 347.571503,122.024940 349.005188,124.012016 
	C349.005188,124.012016 348.946747,124.028023 349.060822,124.739792 
	C355.412292,136.054001 358.891235,148.206802 360.020935,161.120453 
	C361.434570,177.279709 358.417175,192.460312 350.905090,207.040817 
	C350.905090,207.040817 350.588409,206.660538 350.059387,207.043350 
	C344.340637,214.006409 338.621857,220.969467 332.983215,227.987061 
	C332.983215,227.987061 332.939087,227.900757 332.272797,228.083664 
	C321.918610,235.854202 310.552673,241.587341 297.706055,243.549164 
	C289.547211,244.795090 281.221039,244.945419 272.846069,244.739059 
	C270.673615,237.431641 269.255188,229.790146 266.192352,222.877213 
	C255.459152,198.651855 236.861023,181.201202 215.685837,166.147705 
	C201.041412,155.736954 185.949768,145.889709 171.883728,134.748154 
	C155.553909,121.813469 143.671738,105.446037 140.552856,84.177658 
	C139.521439,77.144241 140.072601,69.890877 139.608429,62.757061 
	C139.373322,59.143509 139.073517,55.339535 137.759674,52.036671 
	C135.816528,47.151890 132.719635,42.770313 126.535645,42.908161 
	C120.476456,43.043232 117.504471,47.245136 115.386253,52.213650 
	C114.741661,53.725628 114.234230,55.394241 114.125946,57.021851 
	C112.699738,78.458473 115.200233,99.262924 124.867393,118.741142 
	C137.044281,143.276184 156.627548,160.704605 179.370483,175.082138 
	C196.152802,185.691513 212.186096,197.313446 226.073929,211.610489 
	C241.403610,227.391876 249.292618,245.933258 246.033508,268.269623 
	C243.669907,284.468719 235.641373,298.028595 225.279297,310.232483 
	C218.628632,318.065247 211.273178,325.299591 203.813232,333.250244 
	C213.138260,345.728088 223.099823,359.057739 233.061401,372.387360 
	C234.015213,365.328888 233.777954,358.692139 234.139511,352.088196 
	C234.272125,349.666168 235.351501,346.974396 236.806290,345.000732 
	C244.007401,335.231171 252.220825,326.124176 258.622009,315.874695 
	C263.830872,307.534363 266.982880,297.909485 271.886169,288.792450 
	C277.876038,288.508209 283.866211,288.230438 289.855713,287.938538 
	C308.155884,287.046661 325.385284,282.113373 341.096313,272.839325 
	C405.428741,234.864639 417.932587,151.588226 377.122162,94.289185 
	C351.975494,58.982533 315.910522,43.178158 273.032715,42.393669 
	C264.757935,42.242271 256.464386,43.117294 247.561462,43.603519 
	C246.243958,44.558189 244.926453,45.512856 243.609818,46.552372 
	C243.609818,46.552372 243.607208,46.637188 243.100586,46.837879 
M198.263062,364.153839 
	C197.079819,362.662445 195.896576,361.171051 194.175415,359.001678 
	C186.200165,370.593414 178.429321,381.365875 171.275696,392.533691 
	C168.267914,397.229218 166.149292,402.620148 164.352661,407.940216 
	C160.260513,420.057465 164.058502,432.417542 173.773804,440.244629 
	C183.663315,448.212036 199.058594,449.433197 210.415222,443.151031 
	C221.680206,436.919617 227.317062,425.937714 225.328522,413.082855 
	C224.652023,408.709717 223.676025,404.026062 221.451401,400.314819 
	C214.215256,388.243286 206.338303,376.555908 198.263062,364.153839 
z"/>
<path fill="#F9FCFD" opacity="1.000000" stroke="none" 
	d="
M134.531342,1.000000 
	C135.363586,4.054422 134.111938,5.843383 130.944885,5.923169 
	C127.341568,6.013945 123.678741,5.599743 120.148239,6.123141 
	C117.433846,6.525552 114.900078,8.083323 112.255966,9.044738 
	C110.456810,9.698928 108.637848,10.527979 106.770943,10.716573 
	C103.382370,11.058884 99.947243,10.916073 96.541679,11.134163 
	C95.832878,11.179556 94.783722,11.757032 94.541039,12.353571 
	C91.141304,20.710552 82.816826,18.142084 76.698883,20.230341 
	C73.537437,21.309448 69.838516,20.449835 68.687454,25.038942 
	C68.358757,26.349426 66.604797,27.641392 65.202850,28.284313 
	C59.503399,30.898029 53.715515,33.327084 47.903912,35.685417 
	C43.512592,37.467396 37.942696,37.040573 35.566238,42.528965 
	C35.412781,42.883385 34.349781,42.880875 33.699940,42.977703 
	C27.802277,43.856506 27.801628,43.852161 26.578825,48.463806 
	C22.186804,50.326015 18.454611,52.150120 14.545812,53.438354 
	C13.124376,53.906818 11.281772,53.097355 9.662380,52.875214 
	C10.307345,58.867905 10.240116,58.938587 1.392773,60.992905 
	C1.000000,41.045197 1.000000,21.090393 1.000000,1.000000 
	C45.354141,1.000000 89.708412,1.000000 134.531342,1.000000 
z"/>
<path fill="#25679C" opacity="1.000000" stroke="none" 
	d="
M240.970093,61.033360 
	C241.011063,58.676476 241.052032,56.319595 241.424316,53.834274 
	C241.919327,55.776882 242.083038,57.847931 242.246735,59.918976 
	C242.427032,59.911491 242.607330,59.904007 242.787628,59.896523 
	C242.787628,55.863373 242.787628,51.830219 242.787628,47.797070 
	C242.787628,47.797070 242.827667,47.931705 243.060760,47.810143 
	C243.398315,47.338112 243.502762,46.987648 243.607208,46.637188 
	C243.607208,46.637188 243.609818,46.552372 243.978149,46.674732 
	C247.902176,46.427479 248.922836,45.554543 248.179474,43.518829 
	C256.464386,43.117294 264.757935,42.242271 273.032715,42.393669 
	C315.910522,43.178158 351.975494,58.982533 377.122162,94.289185 
	C417.932587,151.588226 405.428741,234.864639 341.096313,272.839325 
	C325.385284,282.113373 308.155884,287.046661 289.855713,287.938538 
	C283.866211,288.230438 277.876038,288.508209 271.478851,288.397583 
	C271.370239,280.575745 271.628052,273.146851 271.980591,265.722443 
	C272.262177,259.792389 272.659058,253.867813 273.418823,247.902435 
	C275.612854,247.572922 277.398376,246.999664 279.171906,247.034515 
	C295.722626,247.359833 311.030701,242.560226 325.628601,235.378586 
	C328.577881,233.927643 330.528198,230.446106 332.939087,227.900757 
	C332.939087,227.900757 332.983215,227.987061 333.314758,227.983612 
	C342.061127,223.072830 348.390472,216.508224 350.588409,206.660538 
	C350.588409,206.660538 350.905090,207.040817 351.106689,206.847000 
	C358.564117,197.660355 360.889221,186.785370 361.823822,175.818848 
	C363.101654,160.824478 360.436371,146.181641 354.498657,132.298065 
	C353.215820,129.298553 350.826416,126.772285 348.946747,124.028023 
	C348.946747,124.028023 349.005188,124.012016 349.000183,123.661743 
	C347.533966,121.308434 346.072784,119.305405 344.611572,117.302368 
	C344.611572,117.302368 344.969971,117.101143 344.908081,116.836548 
	C342.188995,113.743050 339.531769,110.914131 336.874542,108.085220 
	C336.874542,108.085220 336.955627,108.043800 336.855713,107.828979 
	C336.452881,107.426186 336.149933,107.238205 335.846985,107.050217 
	C335.523254,107.008400 335.272736,106.850449 335.012146,106.004700 
	C331.897858,100.499863 327.896393,96.910942 321.927582,96.047142 
	C321.927582,96.047142 321.986664,95.999825 321.938416,95.679031 
	C319.568665,94.255989 317.247162,93.153740 314.925690,92.051498 
	C314.925690,92.051498 314.980621,92.001465 314.840820,91.793686 
	C314.353638,91.523979 314.006195,91.462059 313.658783,91.400131 
	C313.658783,91.400131 313.927246,91.290131 313.759308,91.008057 
	C302.657135,83.820457 290.181854,82.625801 277.794525,81.184853 
	C277.295929,81.126854 276.641541,82.408463 276.059753,83.065918 
	C276.059753,83.065926 276.003052,83.001221 275.654846,83.073624 
	C274.553467,85.069633 273.335693,86.942986 273.121307,88.924866 
	C271.535217,103.588654 266.175995,116.806343 258.346741,129.169327 
	C257.241791,130.914139 256.772491,133.061493 256.008972,135.022522 
	C256.008972,135.022522 255.996674,135.001633 255.647400,135.036713 
	C254.541519,136.398087 253.784882,137.724365 253.028259,139.050644 
	C253.028244,139.050644 252.996719,139.005142 252.673492,139.032593 
	C250.941757,140.167206 249.415329,141.154373 248.145203,142.402390 
	C242.743652,147.709900 237.281982,152.967773 232.119659,158.502518 
	C229.359756,161.461502 227.095810,161.334732 223.984650,159.122467 
	C221.936478,157.666061 219.289368,157.051987 216.910446,156.060730 
	C216.910446,156.060730 216.984970,156.009995 216.953369,155.694473 
	C213.270020,152.310318 209.618256,149.241669 205.870026,146.091980 
	C210.259674,141.181458 214.458511,136.783585 218.283127,132.081345 
	C220.233231,129.683746 221.511368,126.739616 223.212692,123.730865 
	C227.262878,116.844727 231.193588,110.270241 235.124298,103.695755 
	C236.724670,99.372055 238.325043,95.048363 240.425415,90.258011 
	C241.530624,81.436226 242.168900,73.083061 242.663559,64.721397 
	C242.695160,64.187019 241.613907,63.586807 241.033401,62.686310 
	C241.000977,61.914719 240.985519,61.474037 240.970093,61.033360 
z"/>
<path fill="#2CB18E" opacity="1.000000" stroke="none" 
	d="
M273.004700,247.940796 
	C272.659058,253.867813 272.262177,259.792389 271.980591,265.722443 
	C271.628052,273.146851 271.370239,280.575745 271.059265,288.428467 
	C266.982880,297.909485 263.830872,307.534363 258.622009,315.874695 
	C252.220825,326.124176 244.007401,335.231171 236.806290,345.000732 
	C235.351501,346.974396 234.272125,349.666168 234.139511,352.088196 
	C233.777954,358.692139 234.015213,365.328888 233.061401,372.387360 
	C223.099823,359.057739 213.138260,345.728088 203.813232,333.250244 
	C211.273178,325.299591 218.628632,318.065247 225.279297,310.232483 
	C235.641373,298.028595 243.669907,284.468719 246.033508,268.269623 
	C249.292618,245.933258 241.403610,227.391876 226.073929,211.610489 
	C212.186096,197.313446 196.152802,185.691513 179.370483,175.082138 
	C156.627548,160.704605 137.044281,143.276184 124.867393,118.741142 
	C115.200233,99.262924 112.699738,78.458473 114.125946,57.021851 
	C114.234230,55.394241 114.741661,53.725628 115.386253,52.213650 
	C117.504471,47.245136 120.476456,43.043232 126.535645,42.908161 
	C132.719635,42.770313 135.816528,47.151890 137.759674,52.036671 
	C139.073517,55.339535 139.373322,59.143509 139.608429,62.757061 
	C140.072601,69.890877 139.521439,77.144241 140.552856,84.177658 
	C143.671738,105.446037 155.553909,121.813469 171.883728,134.748154 
	C185.949768,145.889709 201.041412,155.736954 215.685837,166.147705 
	C236.861023,181.201202 255.459152,198.651855 266.192352,222.877213 
	C269.255188,229.790146 270.673615,237.431641 272.916412,245.456177 
	C272.992737,246.762466 272.998718,247.351639 273.004700,247.940796 
z"/>
<path fill="#23669D" opacity="1.000000" stroke="none" 
	d="
M172.026443,350.104340 
	C172.015656,350.425903 171.888321,350.691620 171.068542,350.989502 
	C168.679443,353.746033 166.866287,356.414612 165.053116,359.083160 
	C165.053116,359.083160 165.007355,359.014160 164.690979,359.060089 
	C163.918823,360.077362 163.463058,361.048737 163.007294,362.020081 
	C163.007294,362.020081 162.996765,362.001801 162.651031,362.033264 
	C160.901459,364.417908 159.497635,366.771118 158.093811,369.124329 
	C158.093826,369.124329 158.031296,369.031647 157.701569,369.068024 
	C156.598969,370.763367 155.826111,372.422333 155.053253,374.081299 
	C155.053268,374.081299 155.002350,374.018280 154.691040,374.059723 
	C153.384308,375.171631 152.093658,376.087402 151.439270,377.336517 
	C145.019730,389.590454 140.127716,402.411499 140.118042,416.418854 
	C140.111588,425.757904 141.228699,435.097687 141.878326,444.974640 
	C133.938690,444.974640 125.476128,445.124847 117.033180,444.786163 
	C115.967529,444.743439 114.200729,442.174530 114.123093,440.704041 
	C113.554108,429.927368 113.015381,419.131134 113.056892,408.343323 
	C113.245918,359.228790 113.629028,310.114990 113.959717,260.548218 
	C114.812149,254.084854 115.313972,248.003281 116.573891,242.083069 
	C117.893028,235.884598 119.940331,229.841110 121.669357,223.729874 
	C121.669357,223.729874 121.737251,223.878250 122.030472,223.745773 
	C122.861427,222.044037 123.399162,220.474777 123.936890,218.905502 
	C123.936890,218.905502 123.976181,218.973557 124.211182,218.827148 
	C124.625107,218.107101 124.804047,217.533447 124.982986,216.959793 
	C124.982979,216.959793 125.007248,216.994766 125.248917,216.819504 
	C125.615143,216.248886 125.739693,215.853531 125.864250,215.458176 
	C125.864250,215.458176 125.829269,215.191635 126.293030,215.066895 
	C127.659416,213.165329 128.562042,211.388474 129.464676,209.611633 
	C129.464676,209.611633 129.705261,209.791519 129.986343,209.710419 
	C130.684540,208.629745 131.101654,207.630188 131.518768,206.630615 
	C131.518768,206.630615 131.784790,207.011703 132.039841,206.831512 
	C133.040695,205.309799 133.786499,203.968292 134.532288,202.626785 
	C134.532288,202.626785 134.595978,202.652954 134.906311,202.639191 
	C135.463165,202.058365 135.709671,201.491287 135.956192,200.924225 
	C135.956192,200.924225 135.996185,200.989136 136.319534,200.960815 
	C137.690872,199.537903 138.738876,198.143326 139.786865,196.748749 
	C139.786865,196.748749 139.845245,196.843948 140.075256,196.777924 
	C140.471710,196.379761 140.638153,196.047638 140.804581,195.715500 
	C140.804581,195.715500 140.840988,195.845673 141.066040,195.772675 
	C141.448242,195.360870 141.605392,195.022064 141.762543,194.683243 
	C141.762543,194.683243 141.807220,194.810791 142.038574,194.750885 
	C142.433701,194.353622 142.597473,194.016266 142.761261,193.678894 
	C142.761261,193.678894 142.806351,193.809753 143.037384,193.747040 
	C143.416748,193.339325 143.565063,192.994293 143.713364,192.649261 
	C143.713364,192.649261 143.768082,192.770721 144.007446,192.722122 
	C144.402512,192.330887 144.558197,191.988251 144.713882,191.645630 
	C144.713882,191.645630 144.769577,191.769333 145.007996,191.720703 
	C145.394714,191.326767 145.542984,190.981476 145.691254,190.636185 
	C145.691254,190.636185 145.618912,190.838486 145.997284,190.829773 
	C148.560898,188.483185 150.746140,186.145279 152.931366,183.807388 
	C152.986557,183.480026 153.161423,183.239822 154.091644,183.036926 
	C157.003403,182.682587 159.808563,181.373718 161.464737,182.246094 
	C168.937119,186.182114 176.838898,189.734772 182.314087,197.430817 
	C178.893555,200.520126 175.434250,203.129639 172.618546,206.309113 
	C168.482193,210.979889 164.805695,216.057907 160.808167,221.272095 
	C156.778427,227.970032 152.873795,234.358276 148.969162,240.746521 
	C144.035385,247.847748 143.978134,256.004639 143.933258,265.066467 
	C145.371124,272.875793 146.776962,279.775909 148.182800,286.676025 
	C152.817459,295.345978 157.870758,303.683228 166.658966,309.826263 
	C168.323593,311.594208 169.513779,312.976501 170.813034,314.247253 
	C175.866226,319.189636 180.954041,324.096619 185.882996,329.324829 
	C184.799438,330.962952 183.766357,332.236755 182.943207,333.634186 
	C180.917603,337.073059 178.988510,340.568726 177.020569,344.041534 
	C177.020569,344.041534 176.996735,344.001007 176.778610,344.116943 
	C176.398972,344.537964 176.237457,344.842987 176.075943,345.148041 
	C176.075943,345.148041 176.058197,345.057770 175.727524,345.078186 
	C174.753586,346.194885 174.110336,347.291138 173.467087,348.387390 
	C173.467087,348.387390 173.247543,348.461243 173.013855,348.420593 
	C172.528915,348.954712 172.277679,349.529541 172.026443,350.104340 
z"/>
<path fill="#28B08C" opacity="1.000000" stroke="none" 
	d="
M240.509949,61.113579 
	C240.985519,61.474037 241.000977,61.914719 240.938828,62.738705 
	C240.861221,63.122013 240.679581,63.239357 240.489288,63.565353 
	C239.825577,70.123962 239.352158,76.356575 238.878738,82.589188 
	C211.606552,82.624580 184.334366,82.659973 156.497528,82.313393 
	C155.330536,80.276703 154.728195,78.621986 154.125870,76.967270 
	C154.120041,76.247246 154.114227,75.527214 154.511429,74.317612 
	C156.327606,69.697449 157.740753,65.566864 159.153900,61.436279 
	C183.455933,61.368561 207.757965,61.301373 232.059998,61.232380 
	C234.723297,61.224819 237.386551,61.206909 240.509949,61.113579 
z"/>
<path fill="#31B18F" opacity="1.000000" stroke="none" 
	d="
M148.378616,286.340759 
	C146.776962,279.775909 145.371124,272.875793 143.972565,265.531982 
	C173.095245,265.088287 202.210678,265.088287 232.756180,265.088287 
	C230.803986,271.782684 229.308868,277.632080 227.266174,283.283600 
	C226.873917,284.368896 224.342285,285.219360 222.776978,285.254272 
	C213.121658,285.469635 203.460403,285.459167 193.801178,285.449860 
	C179.477997,285.436066 165.154907,285.350189 150.831757,285.341583 
	C150.079453,285.341125 149.326874,285.774200 148.378616,286.340759 
z"/>
<path fill="#2EAF8D" opacity="1.000000" stroke="none" 
	d="
M149.428619,240.856018 
	C152.873795,234.358276 156.778427,227.970032 161.108582,221.254791 
	C162.098083,220.949310 162.662048,220.970840 163.226028,220.992371 
	C180.175095,220.923203 197.124359,220.803391 214.072937,220.865936 
	C215.705688,220.871964 218.004440,221.528961 218.850098,222.705795 
	C222.753708,228.138138 226.252258,233.861557 229.896011,239.480637 
	C229.516327,239.975601 229.136658,240.470566 228.756973,240.965530 
	C202.467346,240.965530 176.177704,240.965530 149.428619,240.856018 
z"/>
<path fill="#2FB18F" opacity="1.000000" stroke="none" 
	d="
M234.682068,103.497833 
	C231.193588,110.270241 227.262878,116.844727 222.960663,123.745056 
	C222.421906,124.085266 222.254639,124.099632 222.087387,124.113983 
	C207.797668,124.129921 193.507812,124.178421 179.218430,124.115669 
	C177.643448,124.108757 175.841141,123.842583 174.538757,123.049118 
	C169.650955,120.071281 162.750778,109.898048 161.059540,103.299904 
	C185.550613,103.299904 209.895218,103.299904 234.682068,103.497833 
z"/>
<path fill="#A43B3D" opacity="1.000000" stroke="none" 
	d="
M198.485535,364.437256 
	C206.338303,376.555908 214.215256,388.243286 221.451401,400.314819 
	C223.676025,404.026062 224.652023,408.709717 225.328522,413.082855 
	C227.317062,425.937714 221.680206,436.919617 210.415222,443.151031 
	C199.058594,449.433197 183.663315,448.212036 173.773804,440.244629 
	C164.058502,432.417542 160.260513,420.057465 164.352661,407.940216 
	C166.149292,402.620148 168.267914,397.229218 171.275696,392.533691 
	C178.429321,381.365875 186.200165,370.593414 194.175415,359.001678 
	C195.896576,361.171051 197.079819,362.662445 198.485535,364.437256 
M207.313171,442.063629 
	C222.233917,434.176880 225.831055,421.535309 221.741516,406.805603 
	C217.791534,392.578613 208.334259,381.439789 199.525803,370.026520 
	C197.867371,367.877686 195.953049,365.926300 193.840591,363.524261 
	C189.311630,369.845703 185.236176,375.595825 181.096252,381.299164 
	C173.594269,391.634155 166.451797,402.091705 165.625275,415.478455 
	C165.097580,424.025238 167.081039,431.448059 174.031387,437.056549 
	C183.898132,445.018311 194.635880,447.286316 207.313171,442.063629 
z"/>
<path fill="#36AE92" opacity="1.000000" stroke="none" 
	d="
M186.028976,329.016785 
	C180.954041,324.096619 175.866226,319.189636 170.813034,314.247253 
	C169.513779,312.976501 168.323593,311.594208 166.993347,309.974884 
	C174.508759,309.480957 182.113083,309.200836 189.719833,309.091400 
	C196.793533,308.989594 203.869858,309.069672 210.945023,309.069672 
	C211.202530,309.527527 211.460037,309.985352 211.717560,310.443207 
	C203.709259,317.227142 195.700974,324.011078 187.359421,330.645966 
	C186.693771,330.003540 186.361374,329.510162 186.028976,329.016785 
z"/>
<path fill="#3C6A8E" opacity="1.000000" stroke="none" 
	d="
M113.942337,261.000946 
	C113.629028,310.114990 113.245918,359.228790 113.056892,408.343323 
	C113.015381,419.131134 113.554108,429.927368 114.123093,440.704041 
	C114.200729,442.174530 115.967529,444.743439 117.033180,444.786163 
	C125.476128,445.124847 133.938690,444.974640 141.878326,444.974640 
	C141.228699,435.097687 140.111588,425.757904 140.118042,416.418854 
	C140.127716,402.411499 145.019730,389.590454 151.439270,377.336517 
	C152.093658,376.087402 153.384308,375.171631 154.729675,374.071899 
	C151.341782,383.425964 146.993256,392.620209 144.015549,402.238831 
	C139.992004,415.235748 140.551468,428.520599 144.281097,441.629517 
	C144.730957,443.210754 145.132416,444.805786 145.639038,446.704407 
	C134.395355,446.704407 123.484535,446.704407 112.256371,446.704407 
	C112.126877,445.590210 111.921501,444.647644 111.921471,443.705078 
	C111.919518,384.269989 111.933563,324.834900 111.952866,265.399811 
	C111.953247,264.235504 112.033257,263.071198 112.469681,261.452454 
	C113.222939,260.998993 113.582642,260.999969 113.942337,261.000946 
z"/>
<path fill="#3C698A" opacity="1.000000" stroke="none" 
	d="
M163.140900,220.598633 
	C162.662048,220.970840 162.098083,220.949310 161.233688,220.945099 
	C164.805695,216.057907 168.482193,210.979889 172.618546,206.309113 
	C175.434250,203.129639 178.893555,200.520126 182.314087,197.430817 
	C176.838898,189.734772 168.937119,186.182114 161.464737,182.246094 
	C159.808563,181.373718 157.003403,182.682587 154.314362,182.980988 
	C159.670364,177.069824 159.680298,177.055542 166.202332,181.595520 
	C172.863342,186.232285 179.502914,190.899872 186.142899,195.566742 
	C186.240906,195.635620 186.222931,195.869476 185.046371,194.816727 
	C178.869186,201.709229 172.668213,208.580704 166.534119,215.511337 
	C165.248337,216.964050 164.208786,218.634689 163.140900,220.598633 
z"/>
<path fill="#406D90" opacity="1.000000" stroke="none" 
	d="
M349.003784,124.383911 
	C350.826416,126.772285 353.215820,129.298553 354.498657,132.298065 
	C360.436371,146.181641 363.101654,160.824478 361.823822,175.818848 
	C360.889221,186.785370 358.564117,197.660355 350.941467,206.661728 
	C358.417175,192.460312 361.434570,177.279709 360.020935,161.120453 
	C358.891235,148.206802 355.412292,136.054001 349.003784,124.383911 
z"/>
<path fill="#406D90" opacity="1.000000" stroke="none" 
	d="
M273.418823,247.902435 
	C272.998718,247.351639 272.992737,246.762466 272.978333,245.880188 
	C281.221039,244.945419 289.547211,244.795090 297.706055,243.549164 
	C310.552673,241.587341 321.918610,235.854202 332.605957,227.992218 
	C330.528198,230.446106 328.577881,233.927643 325.628601,235.378586 
	C311.030701,242.560226 295.722626,247.359833 279.171906,247.034515 
	C277.398376,246.999664 275.612854,247.572922 273.418823,247.902435 
z"/>
<path fill="#406D90" opacity="1.000000" stroke="none" 
	d="
M217.070496,156.356567 
	C219.289368,157.051987 221.936478,157.666061 223.984650,159.122467 
	C227.095810,161.334732 229.359756,161.461502 232.119659,158.502518 
	C237.281982,152.967773 242.743652,147.709900 248.145203,142.402390 
	C249.415329,141.154373 250.941757,140.167206 252.699554,139.041901 
	C245.290894,147.607208 237.532974,156.190674 229.548798,165.024475 
	C224.849243,161.830444 221.039886,159.241425 217.070496,156.356567 
z"/>
<path fill="#406D90" opacity="1.000000" stroke="none" 
	d="
M256.291809,134.842300 
	C256.772491,133.061493 257.241791,130.914139 258.346741,129.169327 
	C266.175995,116.806343 271.535217,103.588654 273.121307,88.924866 
	C273.335693,86.942986 274.553467,85.069633 275.684692,83.106598 
	C274.769165,89.570129 273.747131,96.141800 272.123047,102.561150 
	C269.154480,114.294640 263.644958,124.875305 256.291809,134.842300 
z"/>
<path fill="#406D90" opacity="1.000000" stroke="none" 
	d="
M221.986755,124.433456 
	C222.254639,124.099632 222.421906,124.085266 222.841187,124.056702 
	C221.511368,126.739616 220.233231,129.683746 218.283127,132.081345 
	C214.458511,136.783585 210.259674,141.181458 205.870026,146.091980 
	C209.618256,149.241669 213.270020,152.310318 216.934326,155.735321 
	C212.323624,153.208481 207.700378,150.325256 202.599899,147.144394 
	C209.226501,139.450836 215.556305,132.101883 221.986755,124.433456 
z"/>
<path fill="#406D90" opacity="1.000000" stroke="none" 
	d="
M276.460114,83.113167 
	C276.641541,82.408463 277.295929,81.126854 277.794525,81.184853 
	C290.181854,82.625801 302.657135,83.820457 313.639282,91.089546 
	C301.888855,86.569603 289.707611,83.386414 276.460114,83.113167 
z"/>
<path fill="#3C698A" opacity="1.000000" stroke="none" 
	d="
M113.959717,260.548218 
	C113.582642,260.999969 113.222939,260.998993 112.592896,260.998291 
	C112.888779,248.152527 115.783051,235.863235 121.401154,223.945557 
	C119.940331,229.841110 117.893028,235.884598 116.573891,242.083069 
	C115.313972,248.003281 114.812149,254.084854 113.959717,260.548218 
z"/>
<path fill="#406D90" opacity="1.000000" stroke="none" 
	d="
M350.323914,206.851944 
	C348.390472,216.508224 342.061127,223.072830 333.274719,227.956360 
	C338.621857,220.969467 344.340637,214.006409 350.323914,206.851944 
z"/>
<path fill="#1C6C8A" opacity="1.000000" stroke="none" 
	d="
M240.955795,63.069618 
	C241.613907,63.586807 242.695160,64.187019 242.663559,64.721397 
	C242.168900,73.083061 241.530624,81.436226 240.556396,89.892334 
	C240.356949,88.586136 240.526520,87.178955 240.869049,84.964012 
	C240.921188,77.183945 240.800385,70.211655 240.679581,63.239357 
	C240.679581,63.239357 240.861221,63.122013 240.955795,63.069618 
z"/>
<path fill="#3C6A8E" opacity="1.000000" stroke="none" 
	d="
M185.882996,329.324829 
	C186.361374,329.510162 186.693771,330.003540 187.063843,330.806458 
	C183.937317,335.317505 180.773071,339.518951 177.314713,343.880981 
	C178.988510,340.568726 180.917603,337.073059 182.943207,333.634186 
	C183.766357,332.236755 184.799438,330.962952 185.882996,329.324829 
z"/>
<path fill="#406D90" opacity="1.000000" stroke="none" 
	d="
M322.105835,96.331985 
	C327.896393,96.910942 331.897858,100.499863 334.937653,105.789200 
	C330.725647,102.969185 326.504883,99.793007 322.105835,96.331985 
z"/>
<path fill="#71C1AF" opacity="1.000000" stroke="none" 
	d="
M158.777939,61.297325 
	C157.740753,65.566864 156.327606,69.697449 154.564438,73.961029 
	C154.582306,70.557533 154.756607,66.982643 155.445633,63.509865 
	C155.632568,62.567608 157.374008,61.933769 158.777939,61.297325 
z"/>
<path fill="#406D90" opacity="1.000000" stroke="none" 
	d="
M336.993103,108.399918 
	C339.531769,110.914131 342.188995,113.743050 344.737854,116.951736 
	C342.123566,114.459206 339.617645,111.586914 336.993103,108.399918 
z"/>
<path fill="#71C1AF" opacity="1.000000" stroke="none" 
	d="
M240.489288,63.565353 
	C240.800385,70.211655 240.921188,77.183945 240.911560,84.610352 
	C240.314774,84.374855 239.848419,83.685257 239.130402,82.792419 
	C239.352158,76.356575 239.825577,70.123962 240.489288,63.565353 
z"/>
<path fill="#3C698A" opacity="1.000000" stroke="none" 
	d="
M152.610199,183.917374 
	C150.746140,186.145279 148.560898,188.483185 146.011566,190.723297 
	C147.861313,188.426147 150.075165,186.226746 152.610199,183.917374 
z"/>
<path fill="#3C6A8E" opacity="1.000000" stroke="none" 
	d="
M165.343826,358.918030 
	C166.866287,356.414612 168.679443,353.746033 170.859268,351.075439 
	C169.362122,353.633270 167.498322,356.193085 165.343826,358.918030 
z"/>
<path fill="#1C6C8A" opacity="1.000000" stroke="none" 
	d="
M242.482285,47.990372 
	C242.787628,51.830219 242.787628,55.863373 242.787628,59.896523 
	C242.607330,59.904007 242.427032,59.911491 242.246735,59.918976 
	C242.083038,57.847931 241.919327,55.776882 241.530640,53.407299 
	C241.596100,51.467064 241.886520,49.825371 242.482285,47.990372 
z"/>
<path fill="#3C6A8E" opacity="1.000000" stroke="none" 
	d="
M158.374786,368.943695 
	C159.497635,366.771118 160.901459,364.417908 162.660980,362.034546 
	C161.563049,364.257294 160.109406,366.510162 158.374786,368.943695 
z"/>
<path fill="#406D90" opacity="1.000000" stroke="none" 
	d="
M315.127563,92.318253 
	C317.247162,93.153740 319.568665,94.255989 321.925751,95.714691 
	C319.750702,94.909103 317.540070,93.747063 315.127563,92.318253 
z"/>
<path fill="#406D90" opacity="1.000000" stroke="none" 
	d="
M344.698730,117.631760 
	C346.072784,119.305405 347.533966,121.308434 348.979736,123.684151 
	C347.571503,122.024940 346.178711,119.993042 344.698730,117.631760 
z"/>
<path fill="#3C698A" opacity="1.000000" stroke="none" 
	d="
M129.208832,209.793320 
	C128.562042,211.388474 127.659416,213.165329 126.401588,214.987640 
	C127.015251,213.347092 127.984116,211.661041 129.208832,209.793320 
z"/>
<path fill="#1C6C8A" opacity="1.000000" stroke="none" 
	d="
M247.870468,43.561172 
	C248.922836,45.554543 247.902176,46.427479 243.977722,46.632309 
	C244.926453,45.512856 246.243958,44.558189 247.870468,43.561172 
z"/>
<path fill="#3C6A8E" opacity="1.000000" stroke="none" 
	d="
M155.326843,373.896301 
	C155.826111,372.422333 156.598969,370.763367 157.751831,369.092499 
	C157.288010,370.624176 156.444214,372.167725 155.326843,373.896301 
z"/>
<path fill="#3C698A" opacity="1.000000" stroke="none" 
	d="
M139.490326,196.870667 
	C138.738876,198.143326 137.690872,199.537903 136.284393,200.946014 
	C137.015198,199.637222 138.104477,198.314896 139.490326,196.870667 
z"/>
<path fill="#3C698A" opacity="1.000000" stroke="none" 
	d="
M134.259949,202.783813 
	C133.786499,203.968292 133.040695,205.309799 131.920898,206.631958 
	C132.360458,205.388672 133.174042,204.164764 134.259949,202.783813 
z"/>
<path fill="#406D90" opacity="1.000000" stroke="none" 
	d="
M253.312576,138.898773 
	C253.784882,137.724365 254.541519,136.398087 255.658966,135.038971 
	C255.212158,136.253052 254.404526,137.499985 253.312576,138.898773 
z"/>
<path fill="#71C1AF" opacity="1.000000" stroke="none" 
	d="
M154.011658,77.376236 
	C154.728195,78.621986 155.330536,80.276703 156.044220,82.248940 
	C152.084335,82.540016 154.437439,79.479408 154.011658,77.376236 
z"/>
<path fill="#3C698A" opacity="1.000000" stroke="none" 
	d="
M123.656998,219.106461 
	C123.399162,220.474777 122.861427,222.044037 121.963806,223.698730 
	C122.194984,222.291931 122.786041,220.799683 123.656998,219.106461 
z"/>
<path fill="#3C6A8E" opacity="1.000000" stroke="none" 
	d="
M173.735916,348.240540 
	C174.110336,347.291138 174.753586,346.194885 175.769989,345.095886 
	C175.430344,346.093292 174.717545,347.093506 173.735916,348.240540 
z"/>
<path fill="#3C6A8E" opacity="1.000000" stroke="none" 
	d="
M163.267014,361.850403 
	C163.463058,361.048737 163.918823,360.077362 164.729416,359.075439 
	C164.565079,359.923523 164.045914,360.802124 163.267014,361.850403 
z"/>
<path fill="#3C698A" opacity="1.000000" stroke="none" 
	d="
M131.264954,206.796402 
	C131.101654,207.630188 130.684540,208.629745 129.888046,209.596848 
	C130.009491,208.696976 130.510315,207.829575 131.264954,206.796402 
z"/>
<path fill="#3C698A" opacity="1.000000" stroke="none" 
	d="
M124.741257,217.138000 
	C124.804047,217.533447 124.625107,218.107101 124.171890,218.827301 
	C124.098244,218.421280 124.298882,217.868744 124.741257,217.138000 
z"/>
<path fill="#3C698A" opacity="1.000000" stroke="none" 
	d="
M135.694107,201.050522 
	C135.709671,201.491287 135.463165,202.058365 134.883652,202.633911 
	C134.844437,202.153870 135.138229,201.665344 135.694107,201.050522 
z"/>
<path fill="#3C6A8E" opacity="1.000000" stroke="none" 
	d="
M172.293274,349.976929 
	C172.277679,349.529541 172.528915,348.954712 173.116562,348.367493 
	C173.155334,348.853180 172.857712,349.351349 172.293274,349.976929 
z"/>
<path fill="#3C6A8E" opacity="1.000000" stroke="none" 
	d="
M176.324615,345.046387 
	C176.237457,344.842987 176.398972,344.537964 176.801544,344.122040 
	C176.886169,344.322357 176.729736,344.633545 176.324615,345.046387 
z"/>
<path fill="#406D90" opacity="1.000000" stroke="none" 
	d="
M313.806335,91.619911 
	C314.006195,91.462059 314.353638,91.523979 314.835419,91.830421 
	C314.631165,91.996521 314.292511,91.918106 313.806335,91.619911 
z"/>
<path fill="#406D90" opacity="1.000000" stroke="none" 
	d="
M335.938385,107.309082 
	C336.149933,107.238205 336.452881,107.426186 336.846924,107.873650 
	C336.635254,107.944740 336.332520,107.756348 335.938385,107.309082 
z"/>
<path fill="#1C6C8A" opacity="1.000000" stroke="none" 
	d="
M243.353897,46.737534 
	C243.502762,46.987648 243.398315,47.338112 243.008148,47.763634 
	C242.848465,47.505089 242.974533,47.171482 243.353897,46.737534 
z"/>
<path fill="#3C698A" opacity="1.000000" stroke="none" 
	d="
M145.433517,190.722992 
	C145.542984,190.981476 145.394714,191.326767 144.944061,191.698059 
	C144.819717,191.419312 144.997742,191.114563 145.433517,190.722992 
z"/>
<path fill="#3C698A" opacity="1.000000" stroke="none" 
	d="
M144.453949,191.730408 
	C144.558197,191.988251 144.402512,192.330887 143.945007,192.698944 
	C143.826797,192.421310 144.010391,192.118240 144.453949,191.730408 
z"/>
<path fill="#3C698A" opacity="1.000000" stroke="none" 
	d="
M143.454178,192.741150 
	C143.565063,192.994293 143.416748,193.339325 142.971008,193.727509 
	C142.847382,193.458115 143.021194,193.145584 143.454178,192.741150 
z"/>
<path fill="#3C698A" opacity="1.000000" stroke="none" 
	d="
M142.498108,193.764832 
	C142.597473,194.016266 142.433701,194.353622 141.973892,194.731354 
	C141.863556,194.464722 142.049240,194.157730 142.498108,193.764832 
z"/>
<path fill="#3C698A" opacity="1.000000" stroke="none" 
	d="
M141.500702,194.775436 
	C141.605392,195.022064 141.448242,195.360870 141.000427,195.756531 
	C140.886108,195.498138 141.062469,195.182892 141.500702,194.775436 
z"/>
<path fill="#3C698A" opacity="1.000000" stroke="none" 
	d="
M140.540924,195.806580 
	C140.638153,196.047638 140.471710,196.379761 140.019470,196.775162 
	C139.914886,196.524826 140.096069,196.211243 140.540924,195.806580 
z"/>
<path fill="#3C698A" opacity="1.000000" stroke="none" 
	d="
M125.606079,215.640060 
	C125.739693,215.853531 125.615143,216.248886 125.227661,216.820404 
	C125.092453,216.605011 125.220184,216.213486 125.606079,215.640060 
z"/>
<path fill="#C22225" opacity="1.000000" stroke="none" 
	d="
M206.937988,442.169312 
	C194.635880,447.286316 183.898132,445.018311 174.031387,437.056549 
	C167.081039,431.448059 165.097580,424.025238 165.625275,415.478455 
	C166.451797,402.091705 173.594269,391.634155 181.096252,381.299164 
	C185.236176,375.595825 189.311630,369.845703 193.840591,363.524261 
	C195.953049,365.926300 197.867371,367.877686 199.525803,370.026520 
	C208.334259,381.439789 217.791534,392.578613 221.741516,406.805603 
	C225.831055,421.535309 222.233917,434.176880 206.937988,442.169312 
z"/>
</svg>